<svg width="1170" height="329" viewBox="0 0 1170 329" fill="none" xmlns="http://www.w3.org/2000/svg">
<path d="M185.299 70.2335C185.299 74.6733 191.177 76.2482 193.397 72.4033L226.364 15.3021C227.563 13.2266 230.217 12.5154 232.292 13.7138L261.114 30.3546C263.19 31.553 263.901 34.207 262.702 36.2825L229.884 93.1258C227.664 96.9708 231.967 101.274 235.812 99.0538L292.656 66.2352C294.731 65.0369 297.385 65.7481 298.584 67.8237L315.224 96.6462C316.422 98.7217 315.711 101.376 313.635 102.574L256.533 135.542C252.688 137.762 254.263 143.64 258.703 143.64H324.599C326.996 143.64 328.938 145.583 328.938 147.979V180.959C328.938 183.356 326.996 185.299 324.599 185.299H258.702C254.262 185.299 252.687 191.177 256.532 193.397L313.634 226.364C315.71 227.563 316.421 230.217 315.223 232.292L298.583 261.114C297.385 263.189 294.73 263.901 292.655 262.702L191.808 204.478C188.915 202.808 185.299 204.895 185.299 208.236V324.599C185.299 326.996 183.356 328.938 180.959 328.938H147.979C145.583 328.938 143.64 326.996 143.64 324.599V208.237C143.64 204.896 140.023 202.809 137.13 204.479L36.2826 262.703C34.207 263.902 31.553 263.19 30.3547 261.115L13.7146 232.292C12.5163 230.217 13.2275 227.563 15.303 226.364L72.405 193.397C76.25 191.177 74.675 185.299 70.2352 185.299H4.33955C1.94288 185.299 0 183.356 0 180.959V147.979C0 145.583 1.94289 143.64 4.33955 143.64H70.2362C74.676 143.64 76.2509 137.762 72.4059 135.542L15.3021 102.573C13.2265 101.375 12.5154 98.7207 13.7138 96.6451L30.3546 67.8226C31.553 65.747 34.207 65.0359 36.2826 66.2342L93.1247 99.0518C96.9697 101.272 101.273 96.9688 99.0527 93.1238L66.2353 36.2826C65.0369 34.207 65.7481 31.553 67.8237 30.3547L96.6462 13.7146C98.7217 12.5163 101.376 13.2275 102.574 15.303L135.542 72.4042C137.762 76.2492 143.64 74.6742 143.64 70.2344V4.33955C143.64 1.94288 145.583 0 147.979 0H180.959C183.356 0 185.299 1.94288 185.299 4.33955V70.2335Z" fill="#5ADA87"/>
<path d="M1118.81 242.442C1108.1 242.442 1098.81 240.035 1090.95 235.221C1083.08 230.407 1077.01 223.796 1072.74 215.388C1068.54 206.912 1066.43 197.25 1066.43 186.401C1066.43 175.484 1068.6 165.822 1072.94 157.414C1077.35 148.938 1083.42 142.293 1091.15 137.479C1098.88 132.597 1107.76 130.156 1117.8 130.156C1128.1 130.156 1137.12 132.529 1144.85 137.276C1152.58 142.022 1158.58 148.599 1162.85 157.007C1167.12 165.347 1169.26 175.01 1169.26 185.994V193.012H1091.56C1091.89 201.759 1094.47 208.811 1099.29 214.167C1104.1 219.524 1110.81 222.202 1119.42 222.202C1125.87 222.202 1131.19 220.812 1135.39 218.032C1139.6 215.184 1142.44 211.455 1143.94 206.844H1167.94C1166.58 213.828 1163.6 219.999 1158.99 225.355C1154.45 230.712 1148.72 234.916 1141.8 237.967C1134.88 240.951 1127.22 242.442 1118.81 242.442ZM1091.76 175.315H1144.65C1143.83 167.653 1141.05 161.618 1136.31 157.211C1131.63 152.736 1125.59 150.498 1118.2 150.498C1110.74 150.498 1104.68 152.736 1100 157.211C1095.39 161.618 1092.64 167.653 1091.76 175.315Z" fill="#010101"/>
<path d="M1009.73 242.442C999.012 242.442 989.723 240.035 981.857 235.221C973.992 230.407 967.923 223.796 963.652 215.388C959.448 206.912 957.346 197.25 957.346 186.401C957.346 175.484 959.515 165.822 963.855 157.414C968.262 148.938 974.331 142.293 982.061 137.479C989.791 132.597 998.673 130.156 1008.71 130.156C1019.01 130.156 1028.03 132.529 1035.76 137.276C1043.49 142.022 1049.49 148.599 1053.77 157.007C1058.04 165.347 1060.17 175.01 1060.17 185.994V193.012H982.468C982.807 201.759 985.383 208.811 990.197 214.167C995.012 219.524 1001.72 222.202 1010.34 222.202C1016.78 222.202 1022.1 220.812 1026.3 218.032C1030.51 215.184 1033.36 211.455 1034.85 206.844H1058.85C1057.49 213.828 1054.51 219.999 1049.9 225.355C1045.36 230.712 1039.63 234.916 1032.71 237.967C1025.8 240.951 1018.13 242.442 1009.73 242.442ZM982.671 175.315H1035.56C1034.75 167.653 1031.97 161.618 1027.22 157.211C1022.54 152.736 1016.51 150.498 1009.12 150.498C1001.66 150.498 995.588 152.736 990.909 157.211C986.299 161.618 983.552 167.653 982.671 175.315Z" fill="#010101"/>
<path d="M897.755 239.999V132.595H922.47V150.394H922.775C924.742 144.292 927.827 139.647 932.031 136.46C936.302 133.205 941.896 131.578 948.812 131.578C950.575 131.578 952.135 131.646 953.491 131.782C954.915 131.849 956.135 131.917 957.153 131.985V154.768C956.203 154.632 954.576 154.462 952.271 154.259C949.965 154.056 947.558 153.954 945.049 153.954C938.947 153.954 933.794 156.056 929.59 160.26C925.453 164.464 923.385 170.77 923.385 179.178V239.999H897.755Z" fill="#010101"/>
<path d="M887.832 132.292V152.939H865.965V208.878C865.965 212.743 866.745 215.422 868.304 216.913C869.864 218.337 872.712 219.049 876.848 219.049H887.832V239.696H872.373C861.456 239.696 853.353 237.492 848.064 233.085C842.843 228.678 840.233 221.863 840.233 212.642V152.939H821.519V132.292H840.233V103H865.965V132.292H887.832Z" fill="#010101"/>
<path d="M746.655 179.281V240.001H721.024V132.597H746.248V149.074C753.707 136.665 764.691 130.461 779.202 130.461C790.457 130.461 799.645 134.089 806.765 141.344C813.952 148.599 817.546 159.109 817.546 172.873V240.001H791.813V176.942C791.813 169.076 789.915 163.109 786.118 159.041C782.321 154.973 776.998 152.938 770.15 152.938C763.437 152.938 757.843 155.04 753.368 159.244C748.893 163.448 746.655 170.127 746.655 179.281Z" fill="#010101"/>
<path d="M651.806 239.999V132.595H676.521V150.394H676.826C678.792 144.292 681.877 139.647 686.081 136.46C690.353 133.205 695.947 131.578 702.863 131.578C704.626 131.578 706.186 131.646 707.542 131.782C708.966 131.849 710.186 131.917 711.203 131.985V154.768C710.254 154.632 708.627 154.462 706.321 154.259C704.016 154.056 701.609 153.954 699.1 153.954C692.998 153.954 687.844 156.056 683.64 160.26C679.504 164.464 677.436 170.77 677.436 179.178V239.999H651.806Z" fill="#010101"/>
<path d="M591.113 242.442C580.4 242.442 571.111 240.035 563.245 235.221C555.38 230.407 549.311 223.796 545.039 215.388C540.835 206.912 538.733 197.25 538.733 186.401C538.733 175.484 540.903 165.822 545.243 157.414C549.65 148.938 555.719 142.293 563.449 137.479C571.178 132.597 580.061 130.156 590.096 130.156C600.403 130.156 609.421 132.529 617.151 137.276C624.88 142.022 630.881 148.599 635.153 157.007C639.425 165.347 641.561 175.01 641.561 185.994V193.012H563.855C564.194 201.759 566.771 208.811 571.585 214.167C576.399 219.524 583.112 222.202 591.723 222.202C598.165 222.202 603.488 220.812 607.692 218.032C611.896 215.184 614.743 211.455 616.235 206.844H640.238C638.882 213.828 635.899 219.999 631.288 225.355C626.745 230.712 621.015 234.916 614.099 237.967C607.183 240.951 599.521 242.442 591.113 242.442ZM564.059 175.315H616.947C616.133 167.653 613.353 161.618 608.607 157.211C603.928 152.736 597.894 150.498 590.503 150.498C583.044 150.498 576.976 152.736 572.297 157.211C567.686 161.618 564.94 167.653 564.059 175.315Z" fill="#010101"/>
<path d="M433.611 239.999V88.4531H535.523V111.744H460.462V153.14H530.133V175.922H460.462V239.999H433.611Z" fill="#010101"/>
</svg>
